<svg xmlns="http://www.w3.org/2000/svg" width="309.219" height="94.218" viewBox="0 0 309.219 94.218">
  <defs>
    <style>
      .cls-1 {
        fill: #fff;
        fill-rule: evenodd;
      }
    </style>
  </defs>
  <path id="Kaua_i" data-name="Kaua‘i" class="cls-1" d="M225.161,689.758l0.444,0.109q0.345,0.084,1.194.24t2.387,0.48q1.539,0.321,4.551,1.05t7.06,1.69q4.049,0.963,7.11,1.681t4.534,1.111q1.473,0.393,2.353.649t1.225,0.334l0.444,0.1q0.791,0.183,1.021-1.083a2.958,2.958,0,0,0,.07-0.948,1.407,1.407,0,0,0-.652-0.658,6.118,6.118,0,0,0-1.881-.689,21.211,21.211,0,0,1-5.523-1.895,4.384,4.384,0,0,1-2.072-1.907,5.8,5.8,0,0,1-.117-2.462q1.035-7.366,2.509-15.443l1.758-9.634q3.653,0.851,4.922,2.359c1.072,1.259,7.026,10.765,17.861,28.414a4.274,4.274,0,0,1,.787,3.018q-0.372,2.048-3.237,1.406-5.236-1.178-5.412-.208-0.356,1.95.435,2.128l0.444,0.1q0.345,0.078,1.244.231t2.437,0.449q1.54,0.294,4.651.991t7.161,1.587q4.245,0.935,7.407,1.62t4.733,1.073q1.569,0.387,2.55.648c0.651,0.173,1.11.288,1.374,0.345l0.494,0.105q0.986,0.21,1.218-1.06a1.53,1.53,0,0,0-.312-1.387,5.34,5.34,0,0,0-2.448-.928,23.416,23.416,0,0,1-3.372-.926,13.077,13.077,0,0,1-3.289-2.233,22.121,22.121,0,0,1-4.1-4.849Q276.664,678.927,266.2,662.4a18.817,18.817,0,0,1-1.711-3.027,8.022,8.022,0,0,1,1.7-1.44q11.262-7.341,22.525-14.794,6.291-4.116,9.1-4.894a14.43,14.43,0,0,1,6.758.06,1.35,1.35,0,0,0,1.14-.065,2.345,2.345,0,0,0,.411-1.133q0.266-1.467-.722-1.674t-5.221-.9q-4.234-.694-5.418-0.952c-0.462-.1-2.442-0.59-5.94-1.484s-5.612-1.427-6.335-1.585q-0.988-.217-1.254,1.246a1.258,1.258,0,0,0,.919,1.725,21.683,21.683,0,0,1,4.62,1.417,3.055,3.055,0,0,1,1.618,1.265,3.191,3.191,0,0,1,0,1.421q-0.3,1.66-4.375,4.577c-2.715,1.938-11.278,7.71-25.683,17.118a7.161,7.161,0,0,1-2.8,1.232,12.14,12.14,0,0,1-3.519-.461q1.075-5.889,2.149-11.778,0.869-4.77,2.7-13.683,0.877-4.261,2.96-4.951t8.6,0.787q1.086,0.245,1.388-1.412,0.231-1.266-.658-1.468c-0.132-.03-1.077-0.207-2.832-0.538s-3.893-.746-6.406-1.255-4.693-.978-6.536-1.4-3.994-.961-6.45-1.605-4.553-1.207-6.285-1.685-2.665-.736-2.8-0.767q-0.89-.212-1.12,1.052-0.3,1.653.784,1.912,6.517,1.554,8.19,3.106t0.99,5.863q-1.437,9-2.306,13.763-2.175,11.914-4.349,23.825-1.475,8.072-3.1,15.288a3.636,3.636,0,0,1-2.233,2.914q-1.71.6-7.04-.689a5.91,5.91,0,0,0-1.97-.227,1.211,1.211,0,0,0-.829.3,2.772,2.772,0,0,0-.267.9q-0.231,1.263.559,1.455h0Zm117.268-19.951a10.068,10.068,0,0,0-3.4-3.854,20.275,20.275,0,0,0-3.957-2.048,12.448,12.448,0,0,0-3.274-.8,9.391,9.391,0,0,0-3.8.5,60.652,60.652,0,0,0-7.3,3.618q-5.618,3.144-7.115,4.662a5.46,5.46,0,0,0-1.618,3.616,4.036,4.036,0,0,0,.862,2.526,3.983,3.983,0,0,0,3.134,1.516,4.7,4.7,0,0,0,3.831-.983,3.744,3.744,0,0,0,1.3-2.4,7.691,7.691,0,0,0-.49-2.843,7.344,7.344,0,0,1-.525-2.245q0.047-.8,2.91-2.466t4.467-1.545a9.8,9.8,0,0,1,5.284,2.614,6.892,6.892,0,0,1,2.678,5.911q-0.261,4.534-.523,9.071c-9.346,2.692-15.574,5.072-18.683,7.214s-4.747,4.635-4.912,7.49a9.917,9.917,0,0,0,1.857,6.215q2.039,3.026,7.25,3.461a13.911,13.911,0,0,0,5.93-.721,37.821,37.821,0,0,0,7.327-4.031,15.5,15.5,0,0,0,1.745,4.639,4.264,4.264,0,0,0,3.431,1.56q2.4,0.178,6.355-2.038t4.008-3.22a1.09,1.09,0,0,0-.411-0.73,1.357,1.357,0,0,0-.828-0.459,5.7,5.7,0,0,0-1.82,1.023,4.313,4.313,0,0,1-2.62.962q-1.7-.123-1.588-2.118,0.817-14.208,1.636-28.416a10.671,10.671,0,0,0-1.131-5.689h0ZM330.516,703.7a11.623,11.623,0,0,1-6.073,1.47,4.043,4.043,0,0,1-3.453-2.082,8.09,8.09,0,0,1-.9-4.479,10.9,10.9,0,0,1,.9-4.28,7.832,7.832,0,0,1,2.824-2.723,27.226,27.226,0,0,1,5.532-2.563,26.372,26.372,0,0,1,4.667-1.541c0.467,0.035.682,0.387,0.644,1.05q-0.346,6.03-.695,12.061Q333.885,702.009,330.516,703.7Zm41.2,3.5q2.957,4.107,10.076,3.855a22.454,22.454,0,0,0,7.215-1.726,28.6,28.6,0,0,0,7.522-4.364q-0.193,3.01-.164,3.81a1.15,1.15,0,0,0,1.253,1.347,6.978,6.978,0,0,0,1.24-.405q1.039-.4,3.773-1.169T409.047,707a20.188,20.188,0,0,0,2.784-.737,0.719,0.719,0,0,0,.476-0.724q-0.069-1.9-.67-1.869-0.3.015-1.9,0.293a21.237,21.237,0,0,1-2.4.316q-2.507.119-2.639-3.58l-0.678-18.785q-0.072-2-.054-4.252t0.053-4.106q0.032-1.853.13-3.359t0.162-2.46c0.043-.635.065-0.987,0.062-1.054a1.226,1.226,0,0,0-1.453-1.334q-1.3.06-3.8,0.323t-3.8.316q-3.609.154-6.12,0.1c-1.674-.032-2.545-0.049-2.611-0.046q-0.7.027-.63,2.026,0.036,1,3.244.873,4.008-.162,5.148.787t1.283,4.95q0.466,12.941.934,25.881,0.077,2.1-3.274,3.842a15.316,15.316,0,0,1-6.457,1.861q-5.315.205-7.675-2.667t-2.575-8.765q-0.487-13.491-.974-26.983a2.684,2.684,0,0,0-.194-1.194,0.8,0.8,0,0,0-.659-0.177q-0.4.014-3.553,0.268t-5.158.313q-1.906.057-3.815-.037t-2.111-.091q-1.105.032-1.031,2.03,0.036,1,2.242.938,4.008-.114,5.167,1.348t1.388,7.861q0.282,7.8.563,15.591,0.3,8.4,3.262,12.5h0Zm79.374-44.275a9.443,9.443,0,0,0-4.045-2.983,19.474,19.474,0,0,0-4.253-1.089,12.237,12.237,0,0,0-3.35-.027,9.654,9.654,0,0,0-3.622,1.372,63.977,63.977,0,0,0-6.459,5.232q-4.9,4.379-6.074,6.216a5.688,5.688,0,0,0-.9,3.918,3.853,3.853,0,0,0,1.313,2.276,3.809,3.809,0,0,0,3.344.758,4.9,4.9,0,0,0,3.557-1.853,3.93,3.93,0,0,0,.817-2.648,7.462,7.462,0,0,0-1.011-2.67,7.088,7.088,0,0,1-.933-2.078q-0.1-.791,2.381-3.089t4.075-2.546a9.406,9.406,0,0,1,5.653,1.335,6.541,6.541,0,0,1,3.724,5.163q0.592,4.5,1.186,9c-8.632,4.808-14.267,8.591-16.9,11.415s-3.766,5.65-3.393,8.486a9.5,9.5,0,0,0,2.976,5.655q2.556,2.487,7.726,1.69a14.328,14.328,0,0,0,5.656-2.1,40.518,40.518,0,0,0,6.405-5.662,14.645,14.645,0,0,0,2.574,4.128q1.161,1.123,3.646.72,2.385-.389,5.833-3.482t3.318-4.085a1.017,1.017,0,0,0-.538-0.617,1.3,1.3,0,0,0-.9-0.254,6.088,6.088,0,0,0-1.588,1.425,4.553,4.553,0,0,1-2.383,1.554q-1.691.279-1.949-1.7-1.857-14.081-3.715-28.162a10.3,10.3,0,0,0-2.171-5.3h0Zm-5.305,35.925a12.13,12.13,0,0,1-5.658,2.862,3.841,3.841,0,0,1-3.762-1.231,7.8,7.8,0,0,1-1.717-4.174,11.126,11.126,0,0,1,.079-4.4,8.377,8.377,0,0,1,2.249-3.325,28.9,28.9,0,0,1,4.925-3.8,27.792,27.792,0,0,1,4.273-2.595q0.694-.109.826,0.878,0.789,5.981,1.577,11.96Q448.758,696.41,445.783,698.851Zm33.049-57.377a4.564,4.564,0,0,0-1.271.577,4.145,4.145,0,0,1-1.076.527q-1.176.3-1.836-2.811a12.894,12.894,0,0,1,.279-5.492,14.215,14.215,0,0,1,2.11-5.135q0.075-.12,1.008-1.329t1.686-2.269a2.763,2.763,0,0,0,.694-1.353,1.048,1.048,0,0,0-1.248-1.013q-1.12.081-2.927,2.019a25.017,25.017,0,0,0-2.813,3.521,21.613,21.613,0,0,0-3.173,16.65,11.475,11.475,0,0,0,3.463,6.346,6.713,6.713,0,0,0,6.537,1.368,6.276,6.276,0,0,0,3.765-2.7,5.585,5.585,0,0,0,.918-4.429,6.78,6.78,0,0,0-2.032-3.727,4.188,4.188,0,0,0-4.084-.753h0Zm31.656-21.011a4.864,4.864,0,0,0-2.449-3.022,4.805,4.805,0,0,0-4-.319,5.259,5.259,0,0,0-3.129,2.714,5.344,5.344,0,0,0-.44,4,4.882,4.882,0,0,0,2.449,3.03,4.783,4.783,0,0,0,4,.321,5.262,5.262,0,0,0,3.129-2.722A5.35,5.35,0,0,0,510.488,620.463Zm6.67,27.179q-0.712-2.67-1-4.031t-0.467-2.183a7.211,7.211,0,0,1-.2-1.234l-0.081-.284q-0.3-1.042-.876-0.847a3.167,3.167,0,0,0-.937.787q-0.649.69-1.627,1.7a29.665,29.665,0,0,1-3.514,2.853,65.279,65.279,0,0,1-6.074,3.863,1.266,1.266,0,0,0-.39,1.587,0.956,0.956,0,0,0,1.192.849q3.48-.748,5,0.139a5.861,5.861,0,0,1,2.309,3.642q1.86,6.5,3.719,12.994,3.555,12.424,3.33,13.85-0.312,2.6-3.3,3.619a12.264,12.264,0,0,0-3.061,1.3,1.264,1.264,0,0,0-.191,1.365c0.2,0.7.555,0.957,1.069,0.782q0.384-.129,1.768-0.651t4.306-1.569q2.921-1.052,6.869-2.407,2.79-.961,4.633-1.548t2.64-.76l0.769-.267a1.1,1.1,0,0,0,.61-1.565,1.13,1.13,0,0,0-.635-0.924,6.058,6.058,0,0,0-2.027.5q-3.081,1.069-4.079.163t-2.221-5.166l-5.861-20.466Q517.869,650.313,517.158,647.642Z" transform="translate(-224.531 -616.844)"/>
</svg>
